<svg width="189" height="76" viewBox="0 0 189 76" fill="none" xmlns="http://www.w3.org/2000/svg">
<path d="M41.1934 75.7275H0.046875L0.046875 0.457031L41.1934 0.457031L41.1934 75.7275ZM79.9473 0.457031C89.8576 0.457468 97.8922 8.49197 97.8926 18.4023V25.5547C97.8925 30.4338 95.9429 34.857 92.7832 38.0918C95.9434 41.3266 97.8924 45.7504 97.8926 50.6299V57.7822C97.8924 67.6928 89.8578 75.7271 79.9473 75.7275H49.5332L49.5332 0.457031L79.9473 0.457031Z" fill="#FF2C2C"/>
<path d="M115.525 28.457L125.205 6.65284H130.537L140.249 28.457H135.361L133.457 24.0137H122.031L120.127 28.457H115.525ZM123.618 20.332H131.838L129.49 14.7144C129.384 14.4816 129.246 14.1748 129.077 13.794C128.929 13.3919 128.77 12.9793 128.601 12.5562C128.453 12.1118 128.305 11.7098 128.157 11.3501C128.009 10.9692 127.903 10.6942 127.839 10.5249H127.649C127.48 10.9481 127.289 11.4347 127.078 11.9849C126.866 12.535 126.665 13.064 126.475 13.5718C126.284 14.0584 126.125 14.4393 125.999 14.7144L123.618 20.332ZM143.156 28.457V6.65284H157.502C159.089 6.65284 160.39 6.94907 161.406 7.54151C162.421 8.13396 163.183 8.938 163.691 9.95362C164.199 10.9692 164.452 12.133 164.452 13.4448C164.452 14.799 164.124 16.0368 163.469 17.1582C162.834 18.2585 161.86 19.1048 160.549 19.6973L165.119 28.457H160.136L156.137 20.5225H147.631V28.457H143.156ZM147.631 16.7773H156.677C157.713 16.7773 158.507 16.4811 159.057 15.8887C159.607 15.2962 159.882 14.5028 159.882 13.5083C159.882 12.8524 159.755 12.3023 159.501 11.8579C159.268 11.3924 158.909 11.0433 158.422 10.8106C157.957 10.5566 157.375 10.4297 156.677 10.4297H147.631V16.7773ZM174.757 28.457V10.5566H166.442V6.65284H187.548V10.5566H179.233V28.457H174.757Z" fill="#FF2C2C"/>
</svg>
