<svg width="190" height="66" viewBox="0 0 190 66" fill="none" xmlns="http://www.w3.org/2000/svg">
<path d="M35.9375 65.5527H0.693359L0.693359 0.685547L35.9375 0.685547L35.9375 65.5527ZM69.1318 0.685547C77.6211 0.685547 84.5029 7.56738 84.5029 16.0566V22.4082C84.5028 26.5729 82.8453 30.35 80.1553 33.1182C82.8457 35.8865 84.5029 39.6648 84.5029 43.8301L84.5029 50.1816C84.5025 58.6706 77.6208 65.5527 69.1318 65.5527L43.0811 65.5527L43.0811 0.685547L69.1318 0.685547Z" fill="#EAD18F"/>
<path d="M110.969 25.0098C108.757 25.0098 106.891 24.6564 105.368 23.9496C103.846 23.2428 102.686 22.1735 101.889 20.7417C101.109 19.3099 100.72 17.5066 100.72 15.3318C100.72 12.1602 101.608 9.7588 103.384 8.12768C105.16 6.49655 107.688 5.68099 110.969 5.68099C112.781 5.68099 114.394 5.9619 115.808 6.52374C117.239 7.08557 118.363 7.91925 119.179 9.02479C119.994 10.1122 120.402 11.4624 120.402 13.0754H116.569C116.569 12.1692 116.333 11.408 115.862 10.7918C115.391 10.1756 114.729 9.71349 113.877 9.40539C113.044 9.07916 112.065 8.91605 110.941 8.91605C109.6 8.91605 108.458 9.15166 107.516 9.62287C106.592 10.0941 105.885 10.7828 105.396 11.689C104.906 12.5951 104.662 13.7007 104.662 15.0056V15.658C104.662 16.9811 104.906 18.1047 105.396 19.029C105.885 19.9352 106.592 20.6239 107.516 21.0951C108.458 21.5482 109.609 21.7748 110.969 21.7748C112.128 21.7748 113.134 21.6207 113.986 21.3126C114.856 21.0045 115.527 20.5423 115.998 19.9261C116.469 19.3099 116.705 18.5578 116.705 17.6698H120.429C120.429 19.2646 120.021 20.6058 119.206 21.6932C118.408 22.7806 117.294 23.6052 115.862 24.1671C114.448 24.7289 112.817 25.0098 110.969 25.0098ZM133.831 25.0098C131.62 25.0098 129.708 24.6473 128.095 23.9224C126.5 23.1975 125.268 22.1191 124.398 20.6873C123.546 19.2374 123.12 17.4613 123.12 15.359C123.12 13.2204 123.546 11.4352 124.398 10.0035C125.268 8.5717 126.5 7.49335 128.095 6.7684C129.708 6.04346 131.62 5.68099 133.831 5.68099C136.06 5.68099 137.972 6.04346 139.567 6.7684C141.162 7.49335 142.385 8.5717 143.237 10.0035C144.107 11.4352 144.542 13.2204 144.542 15.359C144.542 17.4613 144.107 19.2374 143.237 20.6873C142.385 22.1191 141.162 23.1975 139.567 23.9224C137.972 24.6473 136.06 25.0098 133.831 25.0098ZM133.831 21.7748C134.864 21.7748 135.797 21.6479 136.631 21.3942C137.465 21.1223 138.172 20.7326 138.752 20.2252C139.35 19.7177 139.812 19.0834 140.138 18.3222C140.464 17.5429 140.627 16.6548 140.627 15.658V15.0328C140.627 14.036 140.464 13.157 140.138 12.3958C139.812 11.6165 139.35 10.9731 138.752 10.4656C138.172 9.94004 137.465 9.55038 136.631 9.29665C135.797 9.04292 134.864 8.91605 133.831 8.91605C132.798 8.91605 131.865 9.04292 131.031 9.29665C130.215 9.55038 129.509 9.94004 128.91 10.4656C128.312 10.9731 127.859 11.6165 127.551 12.3958C127.243 13.157 127.089 14.036 127.089 15.0328V15.658C127.089 16.6548 127.243 17.5429 127.551 18.3222C127.859 19.0834 128.312 19.7177 128.91 20.2252C129.509 20.7326 130.215 21.1223 131.031 21.3942C131.865 21.6479 132.798 21.7748 133.831 21.7748ZM148.168 24.6836V6.00721H160.456C161.815 6.00721 162.93 6.26094 163.8 6.7684C164.67 7.27587 165.322 7.96456 165.757 8.8345C166.192 9.70443 166.41 10.7012 166.41 11.8249C166.41 12.9848 166.129 14.045 165.567 15.0056C165.023 15.948 164.19 16.673 163.066 17.1804L166.981 24.6836H162.713L159.287 17.8872H152.002V24.6836H148.168ZM152.002 14.6794H159.749C160.637 14.6794 161.317 14.4256 161.788 13.9182C162.259 13.4107 162.495 12.7311 162.495 11.8793C162.495 11.3174 162.386 10.8462 162.169 10.4656C161.97 10.0669 161.661 9.76786 161.245 9.5685C160.846 9.35102 160.347 9.24228 159.749 9.24228H152.002V14.6794ZM170.171 24.6836V6.00721H181.697C182.984 6.00721 184.071 6.26094 184.959 6.7684C185.866 7.27587 186.554 7.98269 187.025 8.88887C187.515 9.79505 187.759 10.8553 187.759 12.0696C187.759 13.2657 187.515 14.3259 187.025 15.2503C186.536 16.1564 185.829 16.8723 184.905 17.3979C183.981 17.9054 182.857 18.1591 181.534 18.1591H174.004V24.6836H170.171ZM174.004 14.924H180.909C181.851 14.924 182.576 14.6703 183.084 14.1628C183.609 13.6554 183.872 12.9576 183.872 12.0696C183.872 11.4715 183.754 10.964 183.519 10.5472C183.283 10.1303 182.948 9.81317 182.513 9.59569C182.096 9.36008 181.561 9.24228 180.909 9.24228H174.004V14.924Z" fill="#EAD18F"/>
</svg>
