<svg width="393" height="236" viewBox="0 0 393 236" fill="none" xmlns="http://www.w3.org/2000/svg">
<g clip-path="url(#clip0_377_1492)">
<path d="M60.2706 29.7417V207.116" stroke="white" stroke-opacity="0.1" stroke-width="3.21109" stroke-linecap="round" stroke-linejoin="round"/>
<path d="M68.4425 48.2183V188.639" stroke="white" stroke-opacity="0.1" stroke-width="3.21109" stroke-linecap="round" stroke-linejoin="round"/>
<path d="M76.6163 55.6089V181.249" stroke="white" stroke-opacity="0.1" stroke-width="3.21109" stroke-linecap="round" stroke-linejoin="round"/>
<path d="M84.7901 40.8276V196.03" stroke="white" stroke-opacity="0.1" stroke-width="3.21109" stroke-linecap="round" stroke-linejoin="round"/>
<path d="M92.9679 33.437V203.42" stroke="white" stroke-opacity="0.1" stroke-width="3.21109" stroke-linecap="round" stroke-linejoin="round"/>
<path d="M101.142 62.9426V173.801" stroke="white" stroke-opacity="0.1" stroke-width="3.21109" stroke-linecap="round" stroke-linejoin="round"/>
<path d="M109.316 81.4192V155.325" stroke="white" stroke-opacity="0.1" stroke-width="3.21109" stroke-linecap="round" stroke-linejoin="round"/>
<path d="M117.491 74.0286V166.411" stroke="white" stroke-opacity="0.1" stroke-width="3.21109" stroke-linecap="round" stroke-linejoin="round"/>
<path d="M125.667 92.5051V147.934" stroke="white" stroke-opacity="0.1" stroke-width="3.21109" stroke-linecap="round" stroke-linejoin="round"/>
<path d="M133.839 99.8958V136.849" stroke="white" stroke-opacity="0.1" stroke-width="3.21109" stroke-linecap="round" stroke-linejoin="round"/>
<path d="M142.017 85.1145V151.63" stroke="white" stroke-opacity="0.1" stroke-width="3.21109" stroke-linecap="round" stroke-linejoin="round"/>
<path d="M150.191 77.7239V162.716" stroke="white" stroke-opacity="0.1" stroke-width="3.21109" stroke-linecap="round" stroke-linejoin="round"/>
<path d="M158.364 88.8098V151.63" stroke="white" stroke-opacity="0.1" stroke-width="3.21109" stroke-linecap="round" stroke-linejoin="round"/>
<path d="M166.54 88.8098V151.63" stroke="white" stroke-opacity="0.1" stroke-width="3.21109" stroke-linecap="round" stroke-linejoin="round"/>
<path opacity="0.5" d="M290.796 59.6567V177.22" stroke="white" stroke-opacity="0.1" stroke-width="3.21109" stroke-linecap="round" stroke-linejoin="round"/>
<path opacity="0.5" d="M298.97 44.9617V191.916" stroke="white" stroke-opacity="0.1" stroke-width="3.21109" stroke-linecap="round" stroke-linejoin="round"/>
<path opacity="0.5" d="M307.144 37.6138V199.264" stroke="white" stroke-opacity="0.1" stroke-width="3.21109" stroke-linecap="round" stroke-linejoin="round"/>
<path opacity="0.5" d="M315.321 74.3528V162.526" stroke="white" stroke-opacity="0.1" stroke-width="3.21109" stroke-linecap="round" stroke-linejoin="round"/>
<path opacity="0.5" d="M323.493 81.6438V155.121" stroke="white" stroke-opacity="0.1" stroke-width="3.21109" stroke-linecap="round" stroke-linejoin="round"/>
<path opacity="0.5" d="M331.667 74.2966V166.143" stroke="white" stroke-opacity="0.1" stroke-width="3.21109" stroke-linecap="round" stroke-linejoin="round"/>
<path opacity="0.5" d="M339.845 92.666V147.774" stroke="white" stroke-opacity="0.1" stroke-width="3.21109" stroke-linecap="round" stroke-linejoin="round"/>
<path opacity="0.5" d="M348.019 100.013V136.752" stroke="white" stroke-opacity="0.1" stroke-width="3.21109" stroke-linecap="round" stroke-linejoin="round"/>
<path opacity="0.5" d="M356.192 85.3171V151.447" stroke="white" stroke-opacity="0.1" stroke-width="3.21109" stroke-linecap="round" stroke-linejoin="round"/>
<path opacity="0.5" d="M364.37 77.9702V162.469" stroke="white" stroke-opacity="0.1" stroke-width="3.21109" stroke-linecap="round" stroke-linejoin="round"/>
<path opacity="0.5" d="M372.544 88.9917V151.447" stroke="white" stroke-opacity="0.1" stroke-width="3.21109" stroke-linecap="round" stroke-linejoin="round"/>
<path opacity="0.5" d="M380.718 88.9917V151.447" stroke="white" stroke-opacity="0.1" stroke-width="3.21109" stroke-linecap="round" stroke-linejoin="round"/>
<path opacity="0.5" d="M280.987 34.9897V204.501" stroke="white" stroke-opacity="0.1" stroke-width="3.21109" stroke-linecap="round" stroke-linejoin="round"/>
<path opacity="0.5" d="M272.811 53.4146V186.076" stroke="white" stroke-opacity="0.1" stroke-width="3.21109" stroke-linecap="round" stroke-linejoin="round"/>
<path opacity="0.5" d="M264.636 60.7849V178.706" stroke="white" stroke-opacity="0.1" stroke-width="3.21109" stroke-linecap="round" stroke-linejoin="round"/>
<path opacity="0.5" d="M256.464 46.0457V193.447" stroke="white" stroke-opacity="0.1" stroke-width="3.21109" stroke-linecap="round" stroke-linejoin="round"/>
<path opacity="0.5" d="M248.286 38.675V200.816" stroke="white" stroke-opacity="0.1" stroke-width="3.21109" stroke-linecap="round" stroke-linejoin="round"/>
<path d="M240.112 64.4133V174.964" stroke="white" stroke-opacity="0.1" stroke-width="3.21109" stroke-linecap="round" stroke-linejoin="round"/>
<path d="M231.938 82.8389V156.54" stroke="white" stroke-opacity="0.1" stroke-width="3.21109" stroke-linecap="round" stroke-linejoin="round"/>
<path d="M223.761 75.4692V167.595" stroke="white" stroke-opacity="0.1" stroke-width="3.21109" stroke-linecap="round" stroke-linejoin="round"/>
<path d="M215.589 93.8938V149.169" stroke="white" stroke-opacity="0.1" stroke-width="3.21109" stroke-linecap="round" stroke-linejoin="round"/>
<path d="M207.415 101.264V138.114" stroke="white" stroke-opacity="0.1" stroke-width="3.21109" stroke-linecap="round" stroke-linejoin="round"/>
<path d="M199.237 86.5234V152.854" stroke="white" stroke-opacity="0.1" stroke-width="3.21109" stroke-linecap="round" stroke-linejoin="round"/>
<path d="M191.063 79.1545V163.91" stroke="white" stroke-opacity="0.1" stroke-width="3.21109" stroke-linecap="round" stroke-linejoin="round"/>
<path d="M182.89 71.7839V171.28" stroke="white" stroke-opacity="0.1" stroke-width="3.21109" stroke-linecap="round" stroke-linejoin="round"/>
<path d="M174.714 104.95V138.115" stroke="white" stroke-opacity="0.1" stroke-width="3.21109" stroke-linecap="round" stroke-linejoin="round"/>
<path opacity="0.5" d="M388.905 106.837V139.901" stroke="white" stroke-opacity="0.1" stroke-width="3.21109" stroke-linecap="round" stroke-linejoin="round"/>
<path d="M50.4579 66.4236V176.64" stroke="white" stroke-opacity="0.1" stroke-width="3.21109" stroke-linecap="round" stroke-linejoin="round"/>
<path d="M42.2841 84.793V158.27" stroke="white" stroke-opacity="0.1" stroke-width="3.21109" stroke-linecap="round" stroke-linejoin="round"/>
<path d="M34.1103 77.4451V169.292" stroke="white" stroke-opacity="0.1" stroke-width="3.21109" stroke-linecap="round" stroke-linejoin="round"/>
<path d="M25.9345 95.8145V150.922" stroke="white" stroke-opacity="0.1" stroke-width="3.21109" stroke-linecap="round" stroke-linejoin="round"/>
<path d="M17.7587 103.162V139.901" stroke="white" stroke-opacity="0.1" stroke-width="3.21109" stroke-linecap="round" stroke-linejoin="round"/>
<path d="M9.58682 88.4666V154.596" stroke="white" stroke-opacity="0.1" stroke-width="3.21109" stroke-linecap="round" stroke-linejoin="round"/>
<path d="M1.40909 81.1194V165.618" stroke="white" stroke-opacity="0.1" stroke-width="3.21109" stroke-linecap="round" stroke-linejoin="round"/>
</g>
<path d="M101.675 109.539C99.2487 109.539 97.5087 109.033 96.4554 108.019C95.4154 106.993 94.8821 105.293 94.8554 102.919C94.8021 98.6526 94.7754 94.3659 94.7754 90.0592C94.7754 85.7392 94.8021 81.4526 94.8554 77.1992H99.1754C99.1354 80.0392 99.1087 82.9592 99.0954 85.9592C99.0821 88.9459 99.0821 91.9392 99.0954 94.9392C99.1087 97.9259 99.1287 100.839 99.1554 103.679C99.1554 104.439 99.3687 105.013 99.7954 105.399C100.222 105.773 100.849 105.959 101.675 105.959C102.515 105.959 103.135 105.773 103.535 105.399C103.949 105.013 104.155 104.439 104.155 103.679C104.182 100.839 104.202 97.9259 104.215 94.9392C104.229 91.9392 104.229 88.9459 104.215 85.9592C104.215 82.9592 104.195 80.0392 104.155 77.1992H108.475C108.542 81.4526 108.575 85.7392 108.575 90.0592C108.575 94.3659 108.542 98.6526 108.475 102.919C108.449 105.293 107.909 106.993 106.855 108.019C105.815 109.033 104.089 109.539 101.675 109.539ZM111.932 109.199V77.1992H118.532L120.612 87.3592L123.072 105.359H124.052L123.252 89.7192L122.932 77.1992H127.132V109.199H120.232L118.032 98.2192L116.072 81.0192H115.032L115.772 97.0792L116.112 109.199H111.932ZM145.733 109.539C143.347 109.539 141.64 109.026 140.613 107.999C139.587 106.959 139.027 105.253 138.933 102.879C138.92 102.253 138.907 101.646 138.893 101.059C138.893 100.459 138.9 99.8592 138.913 99.2592C138.94 98.6592 138.98 98.0459 139.033 97.4192H143.113C143.06 98.4859 143.027 99.5526 143.013 100.619C143.013 101.686 143.047 102.693 143.113 103.639C143.167 104.426 143.4 105.013 143.813 105.399C144.227 105.773 144.86 105.959 145.713 105.959C146.553 105.959 147.16 105.773 147.533 105.399C147.907 105.013 148.133 104.426 148.213 103.639C148.253 103.039 148.28 102.479 148.293 101.959C148.307 101.439 148.307 100.913 148.293 100.379C148.28 99.8459 148.253 99.2592 148.213 98.6192C148.16 97.8326 148 97.1592 147.733 96.5992C147.467 96.0392 146.98 95.6659 146.273 95.4792L143.593 94.7992C142.393 94.4926 141.453 94.0459 140.773 93.4592C140.093 92.8592 139.607 92.0992 139.313 91.1792C139.02 90.2592 138.853 89.1592 138.813 87.8792C138.8 87.1592 138.793 86.4259 138.793 85.6792C138.807 84.9326 138.82 84.1926 138.833 83.4592C138.887 81.8859 139.14 80.6192 139.593 79.6592C140.06 78.6859 140.787 77.9792 141.773 77.5392C142.773 77.0859 144.087 76.8592 145.713 76.8592C148.02 76.8592 149.687 77.3726 150.713 78.3992C151.753 79.4259 152.32 81.1192 152.413 83.4792C152.44 84.1326 152.447 84.9392 152.433 85.8992C152.42 86.8459 152.393 87.7926 152.353 88.7392H148.193C148.233 87.7392 148.253 86.7392 148.253 85.7392C148.267 84.7259 148.253 83.7192 148.213 82.7192C148.2 81.9459 147.98 81.3726 147.553 80.9992C147.127 80.6126 146.507 80.4192 145.693 80.4192C144.84 80.4192 144.22 80.6126 143.833 80.9992C143.447 81.3726 143.22 81.9459 143.153 82.7192C143.087 83.5725 143.053 84.4326 143.053 85.2992C143.067 86.1659 143.1 87.0259 143.153 87.8792C143.207 88.7326 143.373 89.4192 143.653 89.9392C143.933 90.4592 144.44 90.8126 145.173 90.9992L147.593 91.5792C148.86 91.8726 149.847 92.3326 150.553 92.9592C151.26 93.5726 151.76 94.3526 152.053 95.2992C152.347 96.2326 152.513 97.3392 152.553 98.6192C152.58 99.1792 152.593 99.6859 152.593 100.139C152.593 100.593 152.587 101.039 152.573 101.479C152.56 101.906 152.547 102.373 152.533 102.879C152.44 105.253 151.873 106.959 150.833 107.999C149.807 109.026 148.107 109.539 145.733 109.539ZM162.382 109.539C159.982 109.539 158.249 109.033 157.182 108.019C156.129 106.993 155.582 105.293 155.542 102.919C155.502 101.319 155.476 99.7059 155.462 98.0792C155.449 96.4526 155.442 94.8259 155.442 93.1992C155.442 91.5592 155.449 89.9326 155.462 88.3192C155.476 86.6926 155.502 85.0726 155.542 83.4592C155.582 81.0992 156.129 79.4126 157.182 78.3992C158.249 77.3726 159.982 76.8592 162.382 76.8592C164.782 76.8592 166.502 77.3726 167.542 78.3992C168.596 79.4126 169.149 81.0992 169.202 83.4592C169.256 85.0859 169.289 86.7126 169.302 88.3392C169.329 89.9659 169.342 91.5926 169.342 93.2192C169.342 94.8459 169.329 96.4726 169.302 98.0992C169.289 99.7126 169.256 101.319 169.202 102.919C169.149 105.293 168.596 106.993 167.542 108.019C166.502 109.033 164.782 109.539 162.382 109.539ZM162.382 105.959C163.236 105.959 163.862 105.779 164.262 105.419C164.662 105.046 164.869 104.466 164.882 103.679C164.949 102.026 164.989 100.313 165.002 98.5392C165.029 96.7526 165.042 94.9526 165.042 93.1392C165.042 91.3259 165.029 89.5392 165.002 87.7792C164.976 86.0192 164.936 84.3259 164.882 82.6992C164.869 81.9126 164.656 81.3392 164.242 80.9792C163.842 80.6059 163.222 80.4192 162.382 80.4192C161.542 80.4192 160.916 80.6059 160.502 80.9792C160.102 81.3392 159.889 81.9126 159.862 82.6992C159.809 84.3259 159.762 86.0192 159.722 87.7792C159.696 89.5392 159.682 91.3259 159.682 93.1392C159.696 94.9526 159.716 96.7526 159.742 98.5392C159.769 100.313 159.809 102.026 159.862 103.679C159.889 104.466 160.102 105.046 160.502 105.419C160.916 105.779 161.542 105.959 162.382 105.959ZM161.142 75.5992L164.482 70.5592H167.402L163.922 75.5992H161.142ZM172.792 109.199V77.1992H177.112V105.359H184.252V109.199H172.792ZM193.046 109.539C190.646 109.539 188.913 109.033 187.846 108.019C186.793 106.993 186.246 105.293 186.206 102.919C186.166 101.319 186.14 99.7059 186.126 98.0792C186.113 96.4526 186.106 94.8259 186.106 93.1992C186.106 91.5592 186.113 89.9326 186.126 88.3192C186.14 86.6926 186.166 85.0726 186.206 83.4592C186.246 81.0992 186.793 79.4126 187.846 78.3992C188.913 77.3726 190.646 76.8592 193.046 76.8592C195.446 76.8592 197.166 77.3726 198.206 78.3992C199.26 79.4126 199.813 81.0992 199.866 83.4592C199.92 85.0859 199.953 86.7126 199.966 88.3392C199.993 89.9659 200.006 91.5926 200.006 93.2192C200.006 94.8459 199.993 96.4726 199.966 98.0992C199.953 99.7126 199.92 101.319 199.866 102.919C199.813 105.293 199.26 106.993 198.206 108.019C197.166 109.033 195.446 109.539 193.046 109.539ZM193.046 105.959C193.9 105.959 194.526 105.779 194.926 105.419C195.326 105.046 195.533 104.466 195.546 103.679C195.613 102.026 195.653 100.313 195.666 98.5392C195.693 96.7526 195.706 94.9526 195.706 93.1392C195.706 91.3259 195.693 89.5392 195.666 87.7792C195.64 86.0192 195.6 84.3259 195.546 82.6992C195.533 81.9126 195.32 81.3392 194.906 80.9792C194.506 80.6059 193.886 80.4192 193.046 80.4192C192.206 80.4192 191.58 80.6059 191.166 80.9792C190.766 81.3392 190.553 81.9126 190.526 82.6992C190.473 84.3259 190.426 86.0192 190.386 87.7792C190.36 89.5392 190.346 91.3259 190.346 93.1392C190.36 94.9526 190.38 96.7526 190.406 98.5392C190.433 100.313 190.473 102.026 190.526 103.679C190.553 104.466 190.766 105.046 191.166 105.419C191.58 105.779 192.206 105.959 193.046 105.959ZM212.01 109.199V77.1992H223.43V81.0392H216.33V91.0792H223.03V94.9192H216.33V105.359H223.43V109.199H212.01ZM239.23 113.559C237.363 113.693 235.917 113.439 234.89 112.799C233.877 112.173 233.203 111.086 232.87 109.539C230.483 109.539 228.757 109.033 227.69 108.019C226.637 106.993 226.09 105.293 226.05 102.919C226.01 101.319 225.983 99.7059 225.97 98.0792C225.957 96.4526 225.95 94.8259 225.95 93.1992C225.95 91.5592 225.957 89.9326 225.97 88.3192C225.983 86.6926 226.01 85.0726 226.05 83.4592C226.09 81.0992 226.637 79.4126 227.69 78.3992C228.757 77.3726 230.49 76.8592 232.89 76.8592C235.29 76.8592 237.01 77.3726 238.05 78.3992C239.103 79.4126 239.657 81.0992 239.71 83.4592C239.763 85.0859 239.797 86.7126 239.81 88.3392C239.837 89.9659 239.85 91.5926 239.85 93.2192C239.85 94.8459 239.837 96.4726 239.81 98.0992C239.797 99.7126 239.763 101.319 239.71 102.919C239.683 104.439 239.443 105.673 238.99 106.619C238.537 107.553 237.837 108.246 236.89 108.699C237.023 109.246 237.283 109.626 237.67 109.839C238.057 110.066 238.577 110.146 239.23 110.079V113.559ZM232.89 105.959C233.743 105.959 234.37 105.779 234.77 105.419C235.17 105.046 235.377 104.466 235.39 103.679C235.457 102.026 235.497 100.313 235.51 98.5392C235.537 96.7526 235.55 94.9526 235.55 93.1392C235.55 91.3259 235.537 89.5392 235.51 87.7792C235.483 86.0192 235.443 84.3259 235.39 82.6992C235.377 81.9126 235.17 81.3392 234.77 80.9792C234.37 80.6059 233.743 80.4192 232.89 80.4192C232.05 80.4192 231.423 80.6059 231.01 80.9792C230.61 81.3392 230.397 81.9126 230.37 82.6992C230.317 84.3259 230.27 86.0192 230.23 87.7792C230.203 89.5392 230.19 91.3259 230.19 93.1392C230.203 94.9526 230.223 96.7526 230.25 98.5392C230.277 100.313 230.317 102.026 230.37 103.679C230.397 104.466 230.61 105.046 231.01 105.419C231.423 105.779 232.05 105.959 232.89 105.959ZM249.839 109.539C247.413 109.539 245.673 109.033 244.619 108.019C243.579 106.993 243.046 105.293 243.019 102.919C242.966 98.6526 242.939 94.3659 242.939 90.0592C242.939 85.7392 242.966 81.4526 243.019 77.1992H247.339C247.299 80.0392 247.273 82.9592 247.259 85.9592C247.246 88.9459 247.246 91.9392 247.259 94.9392C247.273 97.9259 247.293 100.839 247.319 103.679C247.319 104.439 247.533 105.013 247.959 105.399C248.386 105.773 249.013 105.959 249.839 105.959C250.679 105.959 251.299 105.773 251.699 105.399C252.113 105.013 252.319 104.439 252.319 103.679C252.346 100.839 252.366 97.9259 252.379 94.9392C252.393 91.9392 252.393 88.9459 252.379 85.9592C252.379 82.9592 252.359 80.0392 252.319 77.1992H256.639C256.706 81.4526 256.739 85.7392 256.739 90.0592C256.739 94.3659 256.706 98.6526 256.639 102.919C256.613 105.293 256.073 106.993 255.019 108.019C253.979 109.033 252.253 109.539 249.839 109.539ZM260.096 109.199V77.1992H264.416V109.199H260.096ZM268.143 109.199V77.1992H274.443C276.83 77.1992 278.557 77.6992 279.623 78.6992C280.703 79.6992 281.283 81.3592 281.363 83.6792C281.417 85.1326 281.443 86.4526 281.443 87.6392C281.443 88.8259 281.417 90.0726 281.363 91.3792C281.283 93.6859 280.703 95.3459 279.623 96.3592C278.557 97.3592 276.823 97.8592 274.423 97.8592H272.463V109.199H268.143ZM272.463 94.0192H274.423C275.29 94.0192 275.93 93.8192 276.343 93.4192C276.77 93.0059 277.003 92.3992 277.043 91.5992C277.083 90.7459 277.11 89.8526 277.123 88.9192C277.137 87.9859 277.137 87.0592 277.123 86.1392C277.11 85.2059 277.083 84.3126 277.043 83.4592C277.003 82.6459 276.777 82.0392 276.363 81.6392C275.95 81.2392 275.31 81.0392 274.443 81.0392H272.463V94.0192ZM290.976 109.539C288.576 109.539 286.843 109.033 285.776 108.019C284.723 106.993 284.176 105.293 284.136 102.919C284.096 101.319 284.069 99.7059 284.056 98.0792C284.043 96.4526 284.036 94.8259 284.036 93.1992C284.036 91.5592 284.043 89.9326 284.056 88.3192C284.069 86.6926 284.096 85.0726 284.136 83.4592C284.176 81.0992 284.723 79.4126 285.776 78.3992C286.843 77.3726 288.576 76.8592 290.976 76.8592C293.376 76.8592 295.096 77.3726 296.136 78.3992C297.189 79.4126 297.743 81.0992 297.796 83.4592C297.849 85.0859 297.883 86.7126 297.896 88.3392C297.923 89.9659 297.936 91.5926 297.936 93.2192C297.936 94.8459 297.923 96.4726 297.896 98.0992C297.883 99.7126 297.849 101.319 297.796 102.919C297.743 105.293 297.189 106.993 296.136 108.019C295.096 109.033 293.376 109.539 290.976 109.539ZM290.976 105.959C291.829 105.959 292.456 105.779 292.856 105.419C293.256 105.046 293.463 104.466 293.476 103.679C293.543 102.026 293.583 100.313 293.596 98.5392C293.623 96.7526 293.636 94.9526 293.636 93.1392C293.636 91.3259 293.623 89.5392 293.596 87.7792C293.569 86.0192 293.529 84.3259 293.476 82.6992C293.463 81.9126 293.249 81.3392 292.836 80.9792C292.436 80.6059 291.816 80.4192 290.976 80.4192C290.136 80.4192 289.509 80.6059 289.096 80.9792C288.696 81.3392 288.483 81.9126 288.456 82.6992C288.403 84.3259 288.356 86.0192 288.316 87.7792C288.289 89.5392 288.276 91.3259 288.276 93.1392C288.289 94.9526 288.309 96.7526 288.336 98.5392C288.363 100.313 288.403 102.026 288.456 103.679C288.483 104.466 288.696 105.046 289.096 105.419C289.509 105.779 290.136 105.959 290.976 105.959ZM51.6393 157.199V125.199H58.2593C60.6726 125.199 62.4193 125.726 63.4993 126.779C64.5793 127.819 65.1393 129.546 65.1793 131.959C65.2193 134.159 65.246 136.246 65.2593 138.219C65.2726 140.193 65.2726 142.173 65.2593 144.159C65.246 146.133 65.2193 148.219 65.1793 150.419C65.1393 152.833 64.5793 154.566 63.4993 155.619C62.4193 156.673 60.666 157.199 58.2393 157.199H51.6393ZM55.9593 153.359H58.2393C59.1193 153.359 59.7726 153.159 60.1993 152.759C60.626 152.346 60.846 151.726 60.8593 150.899C60.8993 149.273 60.926 147.653 60.9393 146.039C60.9526 144.413 60.9593 142.793 60.9593 141.179C60.9593 139.566 60.9526 137.953 60.9393 136.339C60.926 134.713 60.8993 133.086 60.8593 131.459C60.846 130.646 60.626 130.039 60.1993 129.639C59.7726 129.239 59.126 129.039 58.2593 129.039H55.9593V153.359ZM75.4487 157.539C73.0487 157.539 71.3153 157.033 70.2487 156.019C69.1953 154.993 68.6487 153.293 68.6087 150.919C68.5687 149.319 68.542 147.706 68.5287 146.079C68.5153 144.453 68.5087 142.826 68.5087 141.199C68.5087 139.559 68.5153 137.933 68.5287 136.319C68.542 134.693 68.5687 133.073 68.6087 131.459C68.6487 129.099 69.1953 127.413 70.2487 126.399C71.3153 125.373 73.0487 124.859 75.4487 124.859C77.8487 124.859 79.5687 125.373 80.6087 126.399C81.662 127.413 82.2153 129.099 82.2687 131.459C82.322 133.086 82.3553 134.713 82.3687 136.339C82.3953 137.966 82.4087 139.593 82.4087 141.219C82.4087 142.846 82.3953 144.473 82.3687 146.099C82.3553 147.713 82.322 149.319 82.2687 150.919C82.2153 153.293 81.662 154.993 80.6087 156.019C79.5687 157.033 77.8487 157.539 75.4487 157.539ZM75.4487 153.959C76.302 153.959 76.9287 153.779 77.3287 153.419C77.7287 153.046 77.9353 152.466 77.9487 151.679C78.0153 150.026 78.0553 148.313 78.0687 146.539C78.0953 144.753 78.1087 142.953 78.1087 141.139C78.1087 139.326 78.0953 137.539 78.0687 135.779C78.042 134.019 78.002 132.326 77.9487 130.699C77.9353 129.913 77.722 129.339 77.3087 128.979C76.9087 128.606 76.2887 128.419 75.4487 128.419C74.6087 128.419 73.982 128.606 73.5687 128.979C73.1687 129.339 72.9553 129.913 72.9287 130.699C72.8753 132.326 72.8287 134.019 72.7887 135.779C72.762 137.539 72.7487 139.326 72.7487 141.139C72.762 142.953 72.782 144.753 72.8087 146.539C72.8353 148.313 72.8753 150.026 72.9287 151.679C72.9553 152.466 73.1687 153.046 73.5687 153.419C73.982 153.779 74.6087 153.959 75.4487 153.959ZM92.198 157.539C89.8114 157.539 88.1047 157.026 87.078 155.999C86.0514 154.959 85.4914 153.253 85.398 150.879C85.3847 150.253 85.3714 149.646 85.358 149.059C85.358 148.459 85.3647 147.859 85.378 147.259C85.4047 146.659 85.4447 146.046 85.498 145.419H89.578C89.5247 146.486 89.4914 147.553 89.478 148.619C89.478 149.686 89.5114 150.693 89.578 151.639C89.6314 152.426 89.8647 153.013 90.278 153.399C90.6914 153.773 91.3247 153.959 92.178 153.959C93.018 153.959 93.6247 153.773 93.998 153.399C94.3714 153.013 94.598 152.426 94.678 151.639C94.718 151.039 94.7447 150.479 94.758 149.959C94.7714 149.439 94.7714 148.913 94.758 148.379C94.7447 147.846 94.718 147.259 94.678 146.619C94.6247 145.833 94.4647 145.159 94.198 144.599C93.9314 144.039 93.4447 143.666 92.738 143.479L90.058 142.799C88.858 142.493 87.918 142.046 87.238 141.459C86.558 140.859 86.0714 140.099 85.778 139.179C85.4847 138.259 85.318 137.159 85.278 135.879C85.2647 135.159 85.258 134.426 85.258 133.679C85.2714 132.933 85.2847 132.193 85.298 131.459C85.3514 129.886 85.6047 128.619 86.058 127.659C86.5247 126.686 87.2514 125.979 88.238 125.539C89.238 125.086 90.5514 124.859 92.178 124.859C94.4847 124.859 96.1514 125.373 97.178 126.399C98.218 127.426 98.7847 129.119 98.878 131.479C98.9047 132.133 98.9114 132.939 98.898 133.899C98.8847 134.846 98.858 135.793 98.818 136.739H94.658C94.698 135.739 94.718 134.739 94.718 133.739C94.7314 132.726 94.718 131.719 94.678 130.719C94.6647 129.946 94.4447 129.373 94.018 128.999C93.5914 128.613 92.9714 128.419 92.158 128.419C91.3047 128.419 90.6847 128.613 90.298 128.999C89.9114 129.373 89.6847 129.946 89.618 130.719C89.5514 131.573 89.518 132.433 89.518 133.299C89.5314 134.166 89.5647 135.026 89.618 135.879C89.6714 136.733 89.838 137.419 90.118 137.939C90.398 138.459 90.9047 138.813 91.638 138.999L94.058 139.579C95.3247 139.873 96.3114 140.333 97.018 140.959C97.7247 141.573 98.2247 142.353 98.518 143.299C98.8114 144.233 98.978 145.339 99.018 146.619C99.0447 147.179 99.058 147.686 99.058 148.139C99.058 148.593 99.0514 149.039 99.038 149.479C99.0247 149.906 99.0114 150.373 98.998 150.879C98.9047 153.253 98.338 154.959 97.298 155.999C96.2714 157.026 94.5714 157.539 92.198 157.539ZM110.702 157.199V125.199H122.122V129.039H115.022V139.079H121.722V142.919H115.022V157.199H110.702ZM131.269 157.539C128.869 157.539 127.136 157.033 126.069 156.019C125.016 154.993 124.469 153.293 124.429 150.919C124.389 149.319 124.362 147.706 124.349 146.079C124.336 144.453 124.329 142.826 124.329 141.199C124.329 139.559 124.336 137.933 124.349 136.319C124.362 134.693 124.389 133.073 124.429 131.459C124.469 129.099 125.016 127.413 126.069 126.399C127.136 125.373 128.869 124.859 131.269 124.859C133.669 124.859 135.389 125.373 136.429 126.399C137.482 127.413 138.036 129.099 138.089 131.459C138.142 133.086 138.176 134.713 138.189 136.339C138.216 137.966 138.229 139.593 138.229 141.219C138.229 142.846 138.216 144.473 138.189 146.099C138.176 147.713 138.142 149.319 138.089 150.919C138.036 153.293 137.482 154.993 136.429 156.019C135.389 157.033 133.669 157.539 131.269 157.539ZM131.269 153.959C132.122 153.959 132.749 153.779 133.149 153.419C133.549 153.046 133.756 152.466 133.769 151.679C133.836 150.026 133.876 148.313 133.889 146.539C133.916 144.753 133.929 142.953 133.929 141.139C133.929 139.326 133.916 137.539 133.889 135.779C133.862 134.019 133.822 132.326 133.769 130.699C133.756 129.913 133.542 129.339 133.129 128.979C132.729 128.606 132.109 128.419 131.269 128.419C130.429 128.419 129.802 128.606 129.389 128.979C128.989 129.339 128.776 129.913 128.749 130.699C128.696 132.326 128.649 134.019 128.609 135.779C128.582 137.539 128.569 139.326 128.569 141.139C128.582 142.953 128.602 144.753 128.629 146.539C128.656 148.313 128.696 150.026 128.749 151.679C128.776 152.466 128.989 153.046 129.389 153.419C129.802 153.779 130.429 153.959 131.269 153.959ZM141.678 157.199V125.199H147.978C150.365 125.199 152.092 125.699 153.158 126.699C154.238 127.699 154.818 129.359 154.898 131.679C154.938 132.653 154.958 133.546 154.958 134.359C154.972 135.159 154.972 135.953 154.958 136.739C154.958 137.513 154.938 138.333 154.898 139.199C154.858 140.706 154.598 141.933 154.118 142.879C153.652 143.813 152.925 144.506 151.938 144.959L155.438 157.199H150.838L147.858 145.679H145.998V157.199H141.678ZM145.998 141.859H147.958C148.825 141.859 149.465 141.659 149.878 141.259C150.305 140.846 150.538 140.233 150.578 139.419C150.618 138.566 150.645 137.693 150.658 136.799C150.672 135.893 150.672 134.993 150.658 134.099C150.645 133.193 150.618 132.313 150.578 131.459C150.538 130.646 150.312 130.039 149.898 129.639C149.485 129.239 148.845 129.039 147.978 129.039H145.998V141.859ZM158.163 157.199V125.199H165.403L167.683 137.799L168.583 153.299H169.483L170.343 137.799L172.663 125.199H179.903V157.199H175.563V147.619L176.383 129.039H175.383L173.483 147.879L171.523 157.139H166.523L164.603 147.879L162.663 129.039H161.723L162.483 147.619V157.199H158.163ZM182.372 157.199L186.292 125.199H193.492L197.412 157.199H192.992L192.232 149.219H187.552L186.812 157.199H182.372ZM187.972 145.379H191.832L191.152 138.339L190.452 129.039H189.332L188.652 138.339L187.972 145.379ZM206.261 157.539C203.874 157.539 202.167 157.026 201.141 155.999C200.114 154.959 199.554 153.253 199.461 150.879C199.447 150.253 199.434 149.646 199.421 149.059C199.421 148.459 199.427 147.859 199.441 147.259C199.467 146.659 199.507 146.046 199.561 145.419H203.641C203.587 146.486 203.554 147.553 203.541 148.619C203.541 149.686 203.574 150.693 203.641 151.639C203.694 152.426 203.927 153.013 204.341 153.399C204.754 153.773 205.387 153.959 206.241 153.959C207.081 153.959 207.687 153.773 208.061 153.399C208.434 153.013 208.661 152.426 208.741 151.639C208.781 151.039 208.807 150.479 208.821 149.959C208.834 149.439 208.834 148.913 208.821 148.379C208.807 147.846 208.781 147.259 208.741 146.619C208.687 145.833 208.527 145.159 208.261 144.599C207.994 144.039 207.507 143.666 206.801 143.479L204.121 142.799C202.921 142.493 201.981 142.046 201.301 141.459C200.621 140.859 200.134 140.099 199.841 139.179C199.547 138.259 199.381 137.159 199.341 135.879C199.327 135.159 199.321 134.426 199.321 133.679C199.334 132.933 199.347 132.193 199.361 131.459C199.414 129.886 199.667 128.619 200.121 127.659C200.587 126.686 201.314 125.979 202.301 125.539C203.301 125.086 204.614 124.859 206.241 124.859C208.547 124.859 210.214 125.373 211.241 126.399C212.281 127.426 212.847 129.119 212.941 131.479C212.967 132.133 212.974 132.939 212.961 133.899C212.947 134.846 212.921 135.793 212.881 136.739H208.721C208.761 135.739 208.781 134.739 208.781 133.739C208.794 132.726 208.781 131.719 208.741 130.719C208.727 129.946 208.507 129.373 208.081 128.999C207.654 128.613 207.034 128.419 206.221 128.419C205.367 128.419 204.747 128.613 204.361 128.999C203.974 129.373 203.747 129.946 203.681 130.719C203.614 131.573 203.581 132.433 203.581 133.299C203.594 134.166 203.627 135.026 203.681 135.879C203.734 136.733 203.901 137.419 204.181 137.939C204.461 138.459 204.967 138.813 205.701 138.999L208.121 139.579C209.387 139.873 210.374 140.333 211.081 140.959C211.787 141.573 212.287 142.353 212.581 143.299C212.874 144.233 213.041 145.339 213.081 146.619C213.107 147.179 213.121 147.686 213.121 148.139C213.121 148.593 213.114 149.039 213.101 149.479C213.087 149.906 213.074 150.373 213.061 150.879C212.967 153.253 212.401 154.959 211.361 155.999C210.334 157.026 208.634 157.539 206.261 157.539ZM224.764 157.199V125.199H231.384C233.798 125.199 235.544 125.726 236.624 126.779C237.704 127.819 238.264 129.546 238.304 131.959C238.344 134.159 238.371 136.246 238.384 138.219C238.398 140.193 238.398 142.173 238.384 144.159C238.371 146.133 238.344 148.219 238.304 150.419C238.264 152.833 237.704 154.566 236.624 155.619C235.544 156.673 233.791 157.199 231.364 157.199H224.764ZM229.084 153.359H231.364C232.244 153.359 232.898 153.159 233.324 152.759C233.751 152.346 233.971 151.726 233.984 150.899C234.024 149.273 234.051 147.653 234.064 146.039C234.078 144.413 234.084 142.793 234.084 141.179C234.084 139.566 234.078 137.953 234.064 136.339C234.051 134.713 234.024 133.086 233.984 131.459C233.971 130.646 233.751 130.039 233.324 129.639C232.898 129.239 232.251 129.039 231.384 129.039H229.084V153.359ZM241.874 157.199V125.199H253.294V129.039H246.194V139.079H252.894V142.919H246.194V153.359H253.294V157.199H241.874ZM271.248 157.539C268.821 157.539 267.088 157.026 266.048 155.999C265.021 154.973 264.488 153.273 264.448 150.899C264.421 149.406 264.401 147.839 264.388 146.199C264.375 144.559 264.368 142.893 264.368 141.199C264.368 139.506 264.375 137.839 264.388 136.199C264.401 134.546 264.421 132.966 264.448 131.459C264.475 129.379 265.021 127.766 266.088 126.619C267.155 125.459 268.868 124.879 271.228 124.879C273.575 124.879 275.275 125.393 276.328 126.419C277.381 127.433 277.948 129.126 278.028 131.499C278.041 131.966 278.048 132.526 278.048 133.179C278.048 133.819 278.041 134.459 278.028 135.099C278.015 135.726 278.001 136.279 277.988 136.759H273.668C273.681 136.173 273.688 135.526 273.688 134.819C273.701 134.113 273.708 133.406 273.708 132.699C273.708 131.979 273.701 131.326 273.688 130.739C273.675 129.953 273.461 129.373 273.048 128.999C272.648 128.626 272.041 128.439 271.228 128.439C270.415 128.439 269.808 128.626 269.408 128.999C269.008 129.373 268.795 129.953 268.768 130.739C268.715 132.433 268.675 134.159 268.648 135.919C268.635 137.666 268.628 139.426 268.628 141.199C268.628 142.973 268.635 144.739 268.648 146.499C268.675 148.259 268.715 149.979 268.768 151.659C268.795 152.446 269.008 153.033 269.408 153.419C269.821 153.793 270.435 153.979 271.248 153.979C272.115 153.979 272.761 153.793 273.188 153.419C273.615 153.033 273.835 152.446 273.848 151.659C273.861 151.059 273.868 150.393 273.868 149.659C273.881 148.913 273.881 148.173 273.868 147.439C273.855 146.706 273.841 146.039 273.828 145.439H278.168C278.195 146.319 278.208 147.233 278.208 148.179C278.221 149.113 278.215 150.019 278.188 150.899C278.108 153.273 277.528 154.973 276.448 155.999C275.381 157.026 273.648 157.539 271.248 157.539ZM281.405 157.199V125.199H287.705C290.092 125.199 291.818 125.699 292.885 126.699C293.965 127.699 294.545 129.359 294.625 131.679C294.665 132.653 294.685 133.546 294.685 134.359C294.698 135.159 294.698 135.953 294.685 136.739C294.685 137.513 294.665 138.333 294.625 139.199C294.585 140.706 294.325 141.933 293.845 142.879C293.378 143.813 292.652 144.506 291.665 144.959L295.165 157.199H290.565L287.585 145.679H285.725V157.199H281.405ZM285.725 141.859H287.685C288.552 141.859 289.192 141.659 289.605 141.259C290.032 140.846 290.265 140.233 290.305 139.419C290.345 138.566 290.372 137.693 290.385 136.799C290.398 135.893 290.398 134.993 290.385 134.099C290.372 133.193 290.345 132.313 290.305 131.459C290.265 130.646 290.038 130.039 289.625 129.639C289.212 129.239 288.572 129.039 287.705 129.039H285.725V141.859ZM297.889 157.199V125.199H309.309V129.039H302.209V139.079H308.909V142.919H302.209V153.359H309.309V157.199H297.889ZM310.849 157.199L314.769 125.199H321.969L325.889 157.199H321.469L320.709 149.219H316.029L315.289 157.199H310.849ZM316.449 145.379H320.309L319.629 138.339L318.929 129.039H317.809L317.129 138.339L316.449 145.379ZM328.397 157.199V125.199H334.697C337.084 125.199 338.81 125.699 339.877 126.699C340.957 127.699 341.537 129.359 341.617 131.679C341.657 132.653 341.677 133.546 341.677 134.359C341.69 135.159 341.69 135.953 341.677 136.739C341.677 137.513 341.657 138.333 341.617 139.199C341.577 140.706 341.317 141.933 340.837 142.879C340.37 143.813 339.644 144.506 338.657 144.959L342.157 157.199H337.557L334.577 145.679H332.717V157.199H328.397ZM332.717 141.859H334.677C335.544 141.859 336.184 141.659 336.597 141.259C337.024 140.846 337.257 140.233 337.297 139.419C337.337 138.566 337.364 137.693 337.377 136.799C337.39 135.893 337.39 134.993 337.377 134.099C337.364 133.193 337.337 132.313 337.297 131.459C337.257 130.646 337.03 130.039 336.617 129.639C336.204 129.239 335.564 129.039 334.697 129.039H332.717V141.859Z" fill="white"/>
<defs>
<clipPath id="clip0_377_1492">
<rect width="393" height="235" fill="white" transform="translate(0 0.699219)"/>
</clipPath>
</defs>
</svg>
