<svg width="175" height="175" viewBox="0 0 175 175" fill="none" xmlns="http://www.w3.org/2000/svg">
<g opacity="0.42" filter="url(#filter0_ng_377_1091)">
<path d="M107.917 93.1398L109.171 91.0135L110.341 88.8933L110.178 86.4682L110.069 84.1827L109.102 82.112L107.546 79.8679L104.779 79.5086L102.149 78.8327L102.335 78.8722L102.847 76.1584L103.659 73.5331L102.945 70.9385L101.45 69.154L99.625 67.6913L97.4435 66.7248L95.0535 66.7318L92.6459 66.8049L90.4327 67.7922L88.2865 68.826L86.4512 70.3708L84.5276 71.7719L82.2437 72.544L81.6667 75.6496L83.2599 77.481L84.3244 79.6201L85.2406 81.8397L86.9485 83.6021L87.8736 85.8139L88.9067 87.9632L90.0633 90.0359L91.7021 91.8356L92.938 93.8652L93.5271 96.2708L95.1507 98.0766L97.2031 99.4056L99.1633 97.8234L101.31 96.5681L103.577 95.5228L105.641 94.134L107.917 93.1398Z" fill="#3C3C3C" fill-opacity="0.35"/>
<path d="M87.5197 91.2863L86.6266 89.1067L84.9449 87.3852L84.0421 85.2165L83.0321 83.1071L81.895 81.0685L80.2825 79.3097L79.0674 77.3161L76.5798 75.5053L74.7377 77.1446L72.4932 78.0913L70.601 79.6343L68.5194 80.8494L66.3157 81.8578L64.3178 83.2085L63.3562 86.299L64.8521 88.1464L65.8809 90.261L67.5724 91.9902L68.6449 94.0741L69.9047 96.0527L70.4162 98.4578L72.0362 100.22L73.0567 102.334L74.0393 104.47L75.5486 106.299L76.4751 108.467L79.2491 109.31L81.2668 108.031L83.4 106.951L85.5499 105.91L87.5059 104.533L89.724 103.609L91.7646 102.383L91.8617 99.5733L91.1002 97.3125L90.1289 95.1728L88.5608 93.3803L87.5197 91.2863Z" fill="#3C3C3C" fill-opacity="0.35"/>
<path d="M137.478 49.2421C135.276 46.3923 133.007 43.6633 130.403 41.2348C123.027 34.3555 114.733 29.059 104.699 26.9027C102.869 26.5036 101.044 25.9978 99.2455 25.4448C91.2233 22.9826 83.1314 24.0289 75.0938 25.1692C71.9144 25.6186 68.6349 26.315 65.8523 28.2228C63.6679 27.4313 62.4883 29.4053 60.8438 30.0802C59.1994 30.755 57.3427 30.6513 55.7822 31.8268C52.0685 34.6294 48.2953 37.301 44.7433 40.3328C40.9607 43.5493 37.6369 47.2694 34.8651 51.389C29.2607 59.6898 25.1459 68.5248 24.0876 78.6555C23.2795 86.3705 22.5964 91.9286 25.2661 102.2C26.8008 108.09 28.4597 113.757 31.8188 118.85C31.8973 118.986 31.9758 119.122 32.0497 119.25C33.3033 121.421 34.6674 123.539 35.7816 125.783C36.8958 128.027 39.5179 128.958 40.1946 131.478C44.7836 134.782 48.6282 139.021 53.4759 142.015C58.3235 145.009 63.6757 146.947 68.9952 148.912C71.5974 149.872 74.3937 149.881 77.062 150.463C80.6055 151.235 84.1671 151.346 87.7326 151.399C92.8427 151.477 97.8061 150.437 102.813 149.375C108.153 148.241 112.814 145.582 117.817 143.73C121.678 142.301 124.081 138.354 128.039 136.853C132.014 132.425 136.673 128.6 139.636 123.288C141.123 120.622 143.232 118.245 144.369 115.453C146.336 110.633 148.157 105.772 149.282 100.585C150.98 92.7589 150.894 85.0242 149.831 77.2354C149.361 73.7903 148.913 70.1039 147.345 67.1064C145.569 63.7035 144.971 59.8369 142.674 56.6794C140.886 54.2433 139.346 51.6589 137.478 49.2421ZM141.269 62.8115C141.316 65.2021 144.118 66.5699 143.282 69.1294C147.552 78.33 147.147 89.7039 146.087 95.8877C144.371 105.9 141.257 115.628 134.622 123.69C132.038 126.832 129.338 129.876 126.268 132.664C123.343 135.321 119.881 136.837 117.182 138.779C115.948 139.491 115.125 139.945 114.319 140.432C107.191 144.774 99.3369 146.749 91.1091 147.237C83.8947 147.67 76.7171 147.266 69.7757 144.99C60.5643 141.964 52.2973 137.199 45.2052 130.622C40.469 126.228 34.3685 117.439 32.0173 111.474C30.1457 106.727 28.5606 101.756 27.8457 96.7035C27.178 91.9732 26.8574 87.0452 27.4384 82.3352C28.0194 77.6251 28.478 72.7725 30.3788 68.34C32.18 64.1411 33.9451 59.9123 36.4653 56.0447C39.5931 51.2985 43.2705 46.9383 47.4212 43.0547C50.5371 40.0988 54.3142 38.5099 57.7237 36.2056C67.1986 29.8022 77.9787 28.2728 89.0593 27.8735C91.1721 27.7974 93.148 28.5787 95.2793 28.641C97.6573 28.7104 100.062 29.4493 102.418 29.9234C105.097 30.4651 107.681 31.398 110.089 32.6921C111.914 33.6883 114.049 33.8715 115.734 35.298C117.148 36.4916 119.216 37.1742 120.574 38.2564C122.946 40.1309 125.609 41.718 127.687 43.9867C129.991 46.5005 132.689 48.611 134.403 51.7084C135.39 53.4923 137.422 54.5929 138.263 56.6349C139.146 58.7612 141.227 60.4309 141.269 62.8115Z" fill="#3C3C3C" fill-opacity="0.35"/>
<path d="M120.862 90.0287C120.953 86.3131 120.812 82.5554 119.742 78.7719C118.878 75.6908 117.013 73.3421 115.832 70.5871C113.676 65.338 109.81 61.7669 104.958 59.0472C104.378 58.7211 103.688 58.3115 103.087 57.9493C93.8629 52.3663 83.995 52.4652 74.3858 56.0964C67.0007 58.8886 61.1865 64.2262 57.1933 71.2635C54.8808 75.3338 53.6759 79.799 53.2752 84.3596C52.8141 89.6189 52.5795 94.9981 55.5991 99.8127C55.087 102.62 57.5374 104.204 58.3361 106.465C59.1886 108.865 61.9007 109.762 62.7614 112.126C71.0123 118.761 79.7443 122.744 91.5532 121.329C93.8704 121.058 95.8798 119.916 97.908 119.708C101.149 119.375 103.099 117.127 105.74 116.013C108.415 114.884 110.11 112.538 112.077 110.501C117.613 104.759 120.668 97.9168 120.862 90.0287ZM96.4399 117.271C92.8077 118.672 89.1994 118.439 85.6413 118.75C82.7252 118.99 79.7946 118.512 77.1062 117.357C71.8079 115.042 66.9011 112.319 63.1757 107.602C61.6802 105.709 59.7727 104.017 58.9654 101.769C55.833 93.1116 53.9076 84.365 58.6851 75.5926C59.5474 70.4002 63.751 67.4214 66.7998 63.7445C68.1115 62.1608 70.408 61.304 72.3775 60.3749C74.1166 59.5548 75.4128 57.4735 77.7866 58.2836C83.1405 55.5978 88.9631 56.1202 94.2474 57.428C99.7068 58.7759 105.116 61.0164 109.02 65.931C110.733 68.0799 112.267 70.2809 114.469 73.7152C115.843 75.7582 116.776 79.3141 117.771 82.981C118.428 85.4168 117.947 87.6778 118.072 89.9675C118.191 92.1067 117.488 94.4688 116.783 96.5074C115.551 100.095 113.966 103.633 111.65 106.754C107.84 111.908 102.832 114.799 96.4399 117.271Z" fill="#3C3C3C" fill-opacity="0.35"/>
<path d="M105.296 123.56C106.408 126.178 105.809 129.233 107.608 131.606C107.714 131.742 107.519 132.108 107.462 132.368L105.537 131.85C104.566 128.945 101.904 127.248 100.119 124.848L97.3654 126.438C99.163 130.83 100.284 135.451 103.496 138.955C104.905 138.674 104.676 137.53 105.171 136.351L102.181 131.172C103.746 133.255 106.473 134.128 107.273 136.793L110.82 134.745C108.766 132.859 109.292 130.626 109.047 128.539L111.94 133.549L113.976 134.12C114.14 133.505 114.304 132.901 114.458 132.319C112.812 128.42 109.659 125.295 108.806 121.019C105.978 120.914 104.55 121.807 105.296 123.56Z" fill="#3C3C3C" fill-opacity="0.35"/>
<path d="M118.589 110.685L116.759 113.55C117.747 114.994 118.366 116.421 119.94 117.434C121.16 118.222 121.598 120.209 122.479 121.832C119.99 122.6 119.143 120.482 117.65 119.862C116.061 119.202 114.909 117.632 113.143 117.343L110.434 118.907C110.429 119.195 110.364 119.396 110.434 119.48C113.125 122.757 116.721 125.157 119.295 128.576C119.665 129.064 120.979 129.499 121.911 128.079C121.118 127.249 120.921 126.041 119.606 125.144C118.47 124.368 116.78 123.62 116.32 121.71C119.202 122.154 120.807 124.251 123.004 125.534L125.899 123.862C124.783 121.409 123.178 119.611 122.849 117.14C123.979 119.359 125.999 120.472 127.596 121.941C128.783 121.134 128.72 120.194 128.792 119.307C127.109 117.906 125.576 116.336 123.947 114.931C122.27 113.481 121.533 110.654 118.589 110.685Z" fill="#3C3C3C" fill-opacity="0.35"/>
<path d="M80.592 45.1833C80.7581 44.7727 81.0637 44.434 81.4551 44.2265L83.6588 44.511C82.6291 46.3798 84.8173 47.4411 83.8217 48.9489C84.917 48.999 85.4446 48.3798 86.0665 47.9887C85.9243 46.2048 86.0801 44.3554 84.6591 43.0485C85.2313 40.3456 86.6148 37.7367 84.3915 35.1095C81.845 35.3161 79.1519 34.3224 76.5783 36.2322C78.1375 40.5997 77.1488 45.3745 78.8189 50.1925C79.7574 49.5093 80.0486 49.3812 80.2262 49.1534C81.2036 47.928 79.9899 46.4907 80.592 45.1833ZM79.8408 37.7181L82.5745 37.5261C83.3771 38.5423 82.7607 39.0955 82.8264 39.6573C82.875 40.0692 83.4402 40.3693 83.0723 41.0296L81.4028 41.9934C80.692 41.9906 80.6343 41.4427 80.3748 41.0994C79.6034 40.0865 80.2953 38.8286 79.8408 37.7181Z" fill="#3C3C3C" fill-opacity="0.35"/>
<path d="M46.4918 80.923C49.001 79.0958 48.4721 76.1941 49.5243 74.0272C47.5731 71.9174 45.1082 71.6236 42.7676 70.9356C42.524 72.2359 41.6264 73.4286 42.2655 75.0297C43.6967 75.1444 45.0737 73.5817 46.4773 74.7707C45.7703 75.6054 47.0771 76.733 45.9336 77.9291C44.6216 77.4389 43.1751 77.0344 41.6471 76.3918C40.3778 75.8556 38.5312 76.074 37.1474 75.5241C36.77 74.3211 37.0984 73.5183 37.6543 72.7682C38.4102 71.9905 39.5092 73.446 40.3381 72.1944L40.6553 70.569C37.874 69.7089 37.874 69.7089 36.4202 70.4416L34.7246 76.7069C38.1206 79.1075 42.3761 79.6817 46.4918 80.923Z" fill="#3C3C3C" fill-opacity="0.35"/>
<path d="M73.2299 128.304L74.8965 125.743L73.9603 124.121C72.3047 123.507 70.3763 123.482 69.0106 122.063L66.5274 123.497L65.6818 126.899C65.6133 130.308 67.474 130.737 69.1801 131.056L68.4952 134.344C67.5775 133.978 66.4917 134.138 66.0856 133.024L66.3855 131.696C65.5123 131.625 64.6698 130.821 64.4774 130.977L63.3969 134.947C64.8508 136.68 67.2252 136.554 68.9704 137.212C71.816 136.06 70.9329 133.515 72.056 131.771C71.017 131.038 71.12 129.6 69.6683 129.057C68.0718 128.462 68.1118 126.957 68.7706 125.577C68.9244 125.261 69.4724 125.14 69.9183 124.882C70.9337 125.842 71.1038 126.935 70.9866 128.205C71.7666 128.07 72.4389 128.878 73.2299 128.304Z" fill="#3C3C3C" fill-opacity="0.35"/>
<path d="M49.7484 70.001C50.072 70.446 51.1549 70.6872 51.2866 70.5551L52.1944 68.8954C51.2196 66.1819 48.7076 67.067 47.6598 65.5153C47.6532 64.3728 49.2134 64.2584 48.9275 63.0106C50.9874 63.3462 52.0667 64.6477 53.4113 65.5083C53.5888 65.6217 53.9647 65.4234 54.25 65.368C54.9776 64.8599 54.7729 63.9651 55.0989 63.297C50.898 61.4784 47.8916 57.4533 43.0948 56.6158L42.6422 58.5007C46.4908 60.6879 46.4908 60.6879 46.069 63.0508C43.5188 64.3179 42.3025 60.6135 39.7384 61.6993C39.1494 63.6896 40.8371 63.8562 41.7933 64.709C44.1974 66.8505 47.7407 67.2254 49.7484 70.001Z" fill="#3C3C3C" fill-opacity="0.35"/>
<path d="M132.032 94.8089C130.597 92.7529 127.912 92.7858 126.206 91.3501C124.088 95.175 128.522 94.6172 129.729 96.2607C128.033 97.5199 125.523 95.8419 123.976 98.7347C126.942 100.146 129.707 98.8675 132.301 99.1214C133.835 100.685 135.631 101.616 136.813 101.738L138.334 100.06C137.338 98.3722 135.241 99.3194 134.72 97.3223L139.269 96.9272C139.131 95.8846 140.05 95.0475 139.007 93.8658C136.905 95.0398 134.442 94.63 132.032 94.8089Z" fill="#3C3C3C" fill-opacity="0.35"/>
<path d="M129.104 106.331C126.983 105.242 125.358 103.186 123.639 101.663L123.137 104.834C124.039 105.473 125.394 105.995 126.367 107.482C124.085 107.787 121.712 105.265 120.133 108.486C122.274 110.03 124.751 109.743 126.925 110.429C129.3 111.19 130.453 113.894 133.055 114.412C133.093 113.554 133.771 112.882 133.123 111.708C132 111.588 131.122 110.551 130.067 109.74C131.023 108.625 131.9 109.415 132.769 109.512C133.639 109.61 134.477 110.392 135.605 109.682L136.241 107.804C133.917 106.578 131.174 107.405 129.104 106.331Z" fill="#3C3C3C" fill-opacity="0.35"/>
<path d="M89.2596 48.9582C91.3151 49.4295 91.4389 47.3027 92.711 46.371L94.3139 46.7785C95.5754 47.8416 94.2979 48.9071 95.2759 49.83L97.4275 50.5231C97.7669 45.5286 97.8164 40.7522 97.3702 35.9208L94.7273 35.1754C92.1332 39.1736 91.3031 43.8169 88.9024 47.7115C88.5992 48.2251 89.0965 48.5511 89.2596 48.9582ZM96.0025 39.2403C95.5185 41.0153 94.9727 42.3834 95.6018 43.6623C94.98 44.0213 94.5961 44.3123 94.0929 44.0456C93.1826 42.8384 93.6968 41.3046 96.0025 39.2403Z" fill="#3C3C3C" fill-opacity="0.35"/>
<path d="M68.8274 52.44C70.9582 51.4763 73.6409 51.8149 75.3376 49.633C75.2131 49.265 74.9512 48.8484 74.9649 48.438C74.9814 47.8526 75.4118 47.2682 74.8822 46.665C73.977 46.2145 73.0542 45.5396 71.9328 46.5523C72.0287 47.0648 72.1372 47.6313 72.253 48.2336C71.8498 48.9435 71.0825 49.12 70.2092 49.5282C68.0522 47.1773 68.0707 44.3142 67.1298 41.821C66.927 41.285 67.227 40.2533 68.2637 39.948C69.5892 39.8013 69.1945 41.8233 70.4515 41.8627C71.0532 41.4273 71.9286 41.3644 72.2526 40.5082C71.7246 38.8456 70.9518 37.4284 69.2318 37.3951L63.7974 40.5326C65.0557 42.472 64.7033 44.7521 66.0672 46.5372C67.3783 48.2541 66.5714 51.0767 68.8274 52.44Z" fill="#3C3C3C" fill-opacity="0.35"/>
<path d="M57.3459 124.448L60.8373 126.75L61.2928 125.05C61.0072 123.738 60.3013 123.024 59.1503 122.803C59.2982 121.476 59.8235 120.423 61.4113 119.978C62.2207 120.591 63.1467 121.266 64.0439 121.98C64.6762 122.484 65.145 122.179 65.6187 121.748C64.3691 118.798 64.3691 118.799 59.9985 116.446L51.5727 127.248C53.9911 128.49 55.2901 131.161 58.1928 131.511C58.3145 131.057 58.4342 130.604 58.6804 129.691C57.001 129.594 56.8784 127.327 54.9491 127.047C56.6858 126.911 55.8844 124.862 57.3459 124.448Z" fill="#3C3C3C" fill-opacity="0.35"/>
<path d="M101.506 52.2325C103.165 50.8958 103.655 48.8029 104.445 47.0695C105.95 47.1178 106.606 48.965 108.117 48.0904L108.478 46.4075C107.573 45.3303 105.718 45.2658 105.929 43.1235C106.734 42.8879 107.323 41.8441 108.653 42.4169C109.549 42.8058 110.559 42.9479 111.467 43.1913C111.68 42.3966 111.796 41.9356 111.923 41.4915C110.14 39.6633 107.727 39.5236 105.367 38.7882L99.9377 50.5465C100.454 51.1682 100.48 52.1368 101.506 52.2325Z" fill="#3C3C3C" fill-opacity="0.35"/>
<path d="M47.6977 93.6988C45.9387 93.5334 44.3585 93.7607 43.0231 94.5183C41.6978 93.548 41.9851 92.2864 41.8637 91.1249C41.8432 90.9048 41.4701 90.7203 41.2413 90.5086C40.4226 90.5174 39.8755 91.0705 39.0182 91.7094C40.0192 92.9816 39.5084 94.1376 38.533 95.1539L36.376 94.821C35.6644 93.3391 36.8492 91.3142 34.5835 90.8575C33.2773 93.1525 33.3104 93.8931 34.8973 97.7914C39.2154 97.6843 43.4234 96.689 47.6983 96.1377C47.7219 95.3936 48.4356 94.7043 47.6977 93.6988Z" fill="#3C3C3C" fill-opacity="0.35"/>
<path d="M51.3484 51.7697C54.3994 54.4175 56.0846 57.4566 58.9011 59.4213L61.1004 58.1516C58.4065 55.4202 55.9772 52.6348 53.1645 50.044C53.546 49.024 55.3845 48.0665 53.9636 46.349C51.1272 46.4137 50.6416 49.7465 48.2511 50.4682C47.9343 50.5658 47.9068 51.608 47.7104 52.3345C48.4392 52.447 49.1772 52.714 49.8758 52.6358C50.5745 52.5577 51.0714 51.6177 51.3484 51.7697Z" fill="#3C3C3C" fill-opacity="0.35"/>
<path d="M116.943 47.4013L109.996 56.3785C110.379 57.1468 110.393 58.2102 111.802 58.3801C113.729 55.4655 115.817 52.5248 118.206 50.0789C119.617 49.7977 120.73 51.1675 121.934 50.1954C122.052 49.9991 122.105 49.7707 122.086 49.5424C122.067 49.3141 121.977 49.0975 121.828 48.9233C120.556 47.0934 118.02 46.7182 116.929 44.6715C116.889 44.6016 116.645 44.641 116.492 44.6254C115.961 45.1237 114.972 45.0951 114.823 45.9915C114.966 47.0576 115.786 47.1284 116.943 47.4013Z" fill="#3C3C3C" fill-opacity="0.35"/>
<path d="M84.7367 127.399C82.4533 125.753 79.8411 125.694 77.1641 126.053C76.9764 126.079 76.8417 126.506 76.6813 126.745C76.9349 128.265 79.298 127.828 79.2866 128.81C78.9284 132.544 78.758 135.545 77.8984 138.268C77.9954 139.987 79.2968 139.923 80.6632 140.356C80.5335 136.816 81.8084 129.175 82.6148 128.461C83.5459 128.758 84.4401 128.973 84.7367 127.399Z" fill="#3C3C3C" fill-opacity="0.35"/>
<path d="M125.484 81.4774C129.336 80.8231 133.193 80.2255 137.022 79.4754C138.346 79.2149 138.908 78.0775 138.907 76.433C134.255 76.6212 129.884 78.3503 125.33 78.8605C125.293 79.5961 124.591 80.2867 125.484 81.4774Z" fill="#3C3C3C" fill-opacity="0.35"/>
<path d="M126.148 88.3422L139.487 88.2117L140.027 85.7673C135.293 85.795 130.73 85.4193 126.173 85.9793C126.115 86.7482 125.443 87.4402 126.148 88.3422Z" fill="#3C3C3C" fill-opacity="0.35"/>
<path d="M123.138 67.0104L128.855 68.3801L130.143 63.0009C128.2 62.4752 126.592 62.041 124.459 61.4678L123.138 67.0104Z" fill="#3C3C3C" fill-opacity="0.35"/>
<path d="M47.4758 83.9142C46.602 83.555 45.8067 84.1768 44.8302 83.9861C42.0673 83.4486 39.2065 83.4155 36.4185 82.9778C34.9571 82.7552 34.2241 83.2957 33.1779 84.942C38.1763 86.1563 42.8205 86.4846 47.5066 86.5623C47.5873 85.6493 46.9749 84.7873 47.4758 83.9142Z" fill="#3C3C3C" fill-opacity="0.35"/>
<path d="M49.2932 114.001C49.2743 111.946 50.6916 110.486 49.6592 109.501C48.1308 108.784 46.6024 108.067 44.7323 107.187C44.2523 109.426 43.2565 111.137 43.5882 113.286C45.622 112.722 47.2987 113.567 49.2932 114.001Z" fill="#3C3C3C" fill-opacity="0.35"/>
<path d="M89.4 138.521C89.2956 139.194 88.7735 139.818 89.1264 140.564L91.648 141.131L91.9243 138.548C91.1561 138.432 90.2915 137.761 89.4 138.521Z" fill="#3C3C3C" fill-opacity="0.35"/>
</g>
<defs>
<filter id="filter0_ng_377_1091" x="22.3713" y="22.9463" width="129.223" height="129.451" filterUnits="userSpaceOnUse" color-interpolation-filters="sRGB">
<feFlood flood-opacity="0" result="BackgroundImageFix"/>
<feBlend mode="normal" in="SourceGraphic" in2="BackgroundImageFix" result="shape"/>
<feTurbulence type="fractalNoise" baseFrequency="2.0102529525756836 2.0102529525756836" stitchTiles="stitch" numOctaves="3" result="noise" seed="116" />
<feColorMatrix in="noise" type="luminanceToAlpha" result="alphaNoise" />
<feComponentTransfer in="alphaNoise" result="coloredNoise1">
<feFuncA type="discrete" tableValues="0 0 0 0 0 0 0 1 1 1 1 1 1 1 1 1 1 1 1 1 1 1 1 1 1 1 1 1 1 1 1 1 1 1 1 1 1 1 1 1 1 1 0 0 0 0 0 0 0 0 0 0 0 0 0 0 0 0 0 0 0 0 0 0 0 0 0 0 0 0 0 0 0 0 0 0 0 0 0 0 0 0 0 0 0 0 0 0 0 0 0 0 0 0 0 0 0 0 0 0 "/>
</feComponentTransfer>
<feComposite operator="in" in2="shape" in="coloredNoise1" result="noise1Clipped" />
<feFlood flood-color="#AFAEAD" result="color1Flood" />
<feComposite operator="in" in2="noise1Clipped" in="color1Flood" result="color1" />
<feMerge result="effect1_noise_377_1091">
<feMergeNode in="shape" />
<feMergeNode in="color1" />
</feMerge>
<feTurbulence type="fractalNoise" baseFrequency="2.0102529525756836 2.0102529525756836" numOctaves="3" seed="2410" />
<feDisplacementMap in="effect1_noise_377_1091" scale="1.9897993803024292" xChannelSelector="R" yChannelSelector="G" result="displacedImage" width="100%" height="100%" />
<feMerge result="effect2_texture_377_1091">
<feMergeNode in="displacedImage"/>
</feMerge>
</filter>
</defs>
</svg>
