<svg width="98" height="98" viewBox="0 0 98 98" fill="none" xmlns="http://www.w3.org/2000/svg">
<path d="M49 1.15918C75.4218 1.15918 96.8408 22.5782 96.8408 49C96.8408 75.4218 75.4218 96.8408 49 96.8408C22.5782 96.8408 1.15918 75.4218 1.15918 49C1.15918 22.5782 22.5782 1.15918 49 1.15918Z" fill="#F2F2F2"/>
<path d="M49 1.15918C75.4218 1.15918 96.8408 22.5782 96.8408 49C96.8408 75.4218 75.4218 96.8408 49 96.8408C22.5782 96.8408 1.15918 75.4218 1.15918 49C1.15918 22.5782 22.5782 1.15918 49 1.15918Z" stroke="#F2F2F2" stroke-width="2.31818" stroke-linecap="round"/>
<path d="M35.4775 31.6135L62.523 48.9999L35.4775 66.3863V31.6135Z" fill="black" stroke="black" stroke-linecap="round" stroke-linejoin="round"/>
</svg>
