<svg width="25" height="29" viewBox="0 0 25 29" fill="none" xmlns="http://www.w3.org/2000/svg">
<path d="M17.8333 0.519531C19.6014 0.519531 21.2971 1.22191 22.5474 2.47215C23.7976 3.7224 24.5 5.41809 24.5 7.1862V17.8529C24.5 19.621 23.7976 21.3167 22.5474 22.5669C21.2971 23.8172 19.6014 24.5195 17.8333 24.5195H7.16667C5.39856 24.5195 3.70286 23.8172 2.45262 22.5669C1.20238 21.3167 0.5 19.621 0.5 17.8529V7.1862C0.5 5.41809 1.20238 3.7224 2.45262 2.47215C3.70286 1.22191 5.39856 0.519531 7.16667 0.519531H17.8333ZM12.5 7.1862C11.0855 7.1862 9.72896 7.7481 8.72876 8.74829C7.72857 9.74849 7.16667 11.105 7.16667 12.5195C7.16667 13.934 7.72857 15.2906 8.72876 16.2908C9.72896 17.291 11.0855 17.8529 12.5 17.8529C13.9145 17.8529 15.271 17.291 16.2712 16.2908C17.2714 15.2906 17.8333 13.934 17.8333 12.5195C17.8333 11.105 17.2714 9.74849 16.2712 8.74829C15.271 7.7481 13.9145 7.1862 12.5 7.1862ZM12.5 9.85287C13.2072 9.85287 13.8855 10.1338 14.3856 10.6339C14.8857 11.134 15.1667 11.8123 15.1667 12.5195C15.1667 13.2268 14.8857 13.9051 14.3856 14.4051C13.8855 14.9052 13.2072 15.1862 12.5 15.1862C11.7928 15.1862 11.1145 14.9052 10.6144 14.4051C10.1143 13.9051 9.83333 13.2268 9.83333 12.5195C9.83333 11.8123 10.1143 11.134 10.6144 10.6339C11.1145 10.1338 11.7928 9.85287 12.5 9.85287ZM18.5 5.1862C18.1464 5.1862 17.8072 5.32667 17.5572 5.57672C17.3071 5.82677 17.1667 6.16591 17.1667 6.51953C17.1667 6.87315 17.3071 7.21229 17.5572 7.46234C17.8072 7.71239 18.1464 7.85286 18.5 7.85286C18.8536 7.85286 19.1928 7.71239 19.4428 7.46234C19.6929 7.21229 19.8333 6.87315 19.8333 6.51953C19.8333 6.16591 19.6929 5.82677 19.4428 5.57672C19.1928 5.32667 18.8536 5.1862 18.5 5.1862Z" fill="white"/>
</svg>
