<svg width="21" height="25" viewBox="0 0 21 25" fill="none" xmlns="http://www.w3.org/2000/svg">
<path d="M16.6335 4.27953C15.7223 3.2389 15.2201 1.90273 15.2202 0.519531H11.1002V17.0529C11.0691 17.9478 10.6916 18.7956 10.0473 19.4175C9.403 20.0394 8.54234 20.3867 7.64687 20.3862C5.75354 20.3862 4.18021 18.8395 4.18021 16.9195C4.18021 14.6262 6.39354 12.9062 8.67354 13.6129V9.39953C4.07354 8.7862 0.046875 12.3595 0.046875 16.9195C0.046875 21.3595 3.72688 24.5195 7.63354 24.5195C11.8202 24.5195 15.2202 21.1195 15.2202 16.9195V8.53287C16.8909 9.73267 18.8967 10.3764 20.9535 10.3729V6.25286C20.9535 6.25286 18.4469 6.37287 16.6335 4.27953Z" fill="white"/>
</svg>
