<svg width="27" height="19" viewBox="0 0 27 19" fill="none" xmlns="http://www.w3.org/2000/svg">
<path d="M10.8337 13.5189L17.7537 9.51888L10.8337 5.51888V13.5189ZM26.247 3.07888C26.4203 3.70555 26.5403 4.54555 26.6203 5.61221C26.7137 6.67888 26.7537 7.59888 26.7537 8.39888L26.8337 9.51888C26.8337 12.4389 26.6203 14.5855 26.247 15.9589C25.9137 17.1589 25.1403 17.9322 23.9403 18.2655C23.3137 18.4389 22.167 18.5589 20.407 18.6389C18.6737 18.7322 17.087 18.7722 15.6203 18.7722L13.5003 18.8522C7.91366 18.8522 4.43366 18.6389 3.06033 18.2655C1.86033 17.9322 1.08699 17.1589 0.753659 15.9589C0.580326 15.3322 0.460326 14.4922 0.380326 13.4255C0.286992 12.3589 0.246992 11.4389 0.246992 10.6389L0.166992 9.51888C0.166992 6.59888 0.380326 4.45221 0.753659 3.07888C1.08699 1.87888 1.86033 1.10555 3.06033 0.772214C3.68699 0.59888 4.83366 0.47888 6.59366 0.39888C8.32699 0.305547 9.91366 0.265547 11.3803 0.265547L13.5003 0.185547C19.087 0.185547 22.567 0.39888 23.9403 0.772214C25.1403 1.10555 25.9137 1.87888 26.247 3.07888Z" fill="white"/>
</svg>
