<svg width="27" height="24" viewBox="0 0 27 24" fill="none" xmlns="http://www.w3.org/2000/svg">
<path d="M26.6667 5.35155C26.5467 7.95155 24.7333 11.5115 21.2267 16.0449C17.6 20.7915 14.5333 23.1249 12 23.1249C10.4667 23.1249 9.14667 21.6849 8.06667 18.7915C7.33333 16.1782 6.66667 13.5382 5.92 10.8982C5.12 8.01821 4.26667 6.57821 3.33333 6.57821C3.14667 6.57821 2.45333 7.00488 1.25333 7.84488L0 6.21821C1.33333 5.05821 2.61333 3.89821 3.89333 2.73821C5.65333 1.21821 6.97333 0.418213 7.84 0.338213C9.92 0.12488 11.2 1.56488 11.68 4.60488C12.2 7.89821 12.56 9.93821 12.76 10.7382C13.3333 13.4582 14 14.7915 14.7333 14.7915C15.2933 14.7915 16.1333 13.9382 17.2533 12.1649C18.3733 10.4049 18.9733 9.05821 19.0533 8.12488C19.2133 6.60488 18.6133 5.84488 17.2533 5.84488C16.6133 5.84488 15.96 5.99155 15.28 6.28488C16.5867 1.97821 19.0933 -0.11512 22.7867 0.00487952C25.5333 0.0848795 26.8267 1.87155 26.6667 5.35155Z" fill="white"/>
</svg>
