<svg width="25" height="25" viewBox="0 0 25 25" fill="none" xmlns="http://www.w3.org/2000/svg">
<path d="M12.1735 0C18.8969 0 24.347 5.45007 24.347 12.1735C24.347 18.8969 18.8969 24.347 12.1735 24.347C10.0221 24.3507 7.90862 23.7813 6.05024 22.6975L0.00488821 24.347L1.65074 18.2992C0.566035 16.4402 -0.00375141 14.3258 1.85873e-05 12.1735C1.85873e-05 5.45007 5.45009 0 12.1735 0ZM8.02478 6.45195L7.78131 6.46169C7.62389 6.47253 7.47009 6.51388 7.32846 6.58342C7.19647 6.6583 7.07593 6.75178 6.97056 6.86098C6.82447 6.99854 6.74169 7.11784 6.65283 7.23348C6.20256 7.81891 5.96012 8.53765 5.96381 9.27619C5.96624 9.87269 6.12206 10.4534 6.36553 10.9963C6.86343 12.0944 7.6827 13.2569 8.76371 14.3343C9.02422 14.5936 9.27987 14.8541 9.55499 15.0963C10.8982 16.2789 12.4989 17.1317 14.2296 17.587L14.9211 17.6929C15.1463 17.7051 15.3715 17.6881 15.5979 17.6771C15.9524 17.6584 16.2985 17.5624 16.612 17.3959C16.7712 17.3135 16.9268 17.2242 17.0782 17.1281C17.0782 17.1281 17.1297 17.0932 17.2304 17.0185C17.3947 16.8968 17.4958 16.8104 17.6321 16.6679C17.7344 16.5624 17.8196 16.4399 17.8877 16.3003C17.9827 16.1019 18.0776 15.7233 18.1166 15.408C18.1458 15.1669 18.1373 15.0355 18.1336 14.9539C18.1288 14.8237 18.0204 14.6885 17.9023 14.6313L17.1938 14.3136C17.1938 14.3136 16.1348 13.8522 15.4871 13.5576C15.4193 13.5281 15.3467 13.5112 15.2729 13.5077C15.1896 13.499 15.1054 13.5083 15.026 13.535C14.9466 13.5616 14.8739 13.6051 14.8127 13.6623C14.8066 13.6599 14.7251 13.7293 13.8449 14.7957C13.7944 14.8635 13.7248 14.9148 13.645 14.943C13.5653 14.9712 13.4789 14.975 13.3969 14.9539C13.3176 14.9328 13.2399 14.9059 13.1644 14.8736C13.0135 14.8103 12.9611 14.7859 12.8577 14.7421C12.1587 14.4376 11.5118 14.0257 10.9403 13.5211C10.7869 13.3872 10.6445 13.2411 10.4984 13.0999C10.0195 12.6412 9.60216 12.1223 9.25673 11.5563L9.18491 11.4406C9.1341 11.3625 9.09244 11.2787 9.06074 11.1911C9.01448 11.0121 9.135 10.8685 9.135 10.8685C9.135 10.8685 9.43082 10.5447 9.56838 10.3694C9.70228 10.1989 9.8155 10.0334 9.88854 9.9153C10.0322 9.68401 10.0772 9.44662 10.0018 9.2628C9.6609 8.43014 9.30868 7.60193 8.94509 6.7782C8.87327 6.61507 8.66024 6.49821 8.46668 6.47508C8.40094 6.46696 8.3352 6.46047 8.26947 6.4556C8.10601 6.44622 7.94211 6.44785 7.77887 6.46047L8.02478 6.45195Z" fill="white"/>
</svg>
